HIERARCHY
ROOT Hips
{
	OFFSET 52.457600 -11.356916 100.652000
	CHANNELS 6 Xposition Yposition Zposition Xrotation Yrotation Zrotation
	JOINT spine
	{
		OFFSET 0.000000 -0.507026 8.817039
		CHANNELS 3 Xrotation Yrotation Zrotation
		JOINT spine1
		{
			OFFSET 0.000000 -0.000002 10.776596
			CHANNELS 3 Xrotation Yrotation Zrotation
			JOINT spine2
			{
				OFFSET 0.000000 -0.000001 10.325897
				CHANNELS 3 Xrotation Yrotation Zrotation
				JOINT Neck
				{
					OFFSET 0.000000 -1.263955 26.511002
					CHANNELS 3 Xrotation Yrotation Zrotation
					JOINT Head
					{
						OFFSET 0.000000 -0.000001 8.009659
						CHANNELS 3 Xrotation Yrotation Zrotation
						End Site
						{
							OFFSET 0.000000 6.393857 19.387894
						}
					}
				}
				JOINT RightShoulder
				{
					OFFSET -4.347950 0.605420 11.151199
					CHANNELS 3 Xrotation Yrotation Zrotation
					JOINT RightArm
					{
						OFFSET 0.000000 -0.000003 14.625793
						CHANNELS 3 Xrotation Yrotation Zrotation
						JOINT RightArmRoll
						{
							OFFSET 0.000000 -0.000001 7.383408
							CHANNELS 3 Xrotation Yrotation Zrotation
							JOINT RightForeArm
							{
								OFFSET 0.000000 -0.000004 21.505203
								CHANNELS 3 Xrotation Yrotation Zrotation
								JOINT RightForeArmRoll
								{
									OFFSET 0.000000 -0.000001 8.285324
									CHANNELS 3 Xrotation Yrotation Zrotation
									JOINT RightHand
									{
										OFFSET 0.000000 -0.000003 16.626801
										CHANNELS 3 Xrotation Yrotation Zrotation
										End Site
										{
											OFFSET 0.000000 0.000000 0.100006
										}
									}
								}
							}
						}
					}
				}
				JOINT LeftShoulder
				{
					OFFSET 4.347950 0.605420 11.151199
					CHANNELS 3 Xrotation Yrotation Zrotation
					JOINT LeftArm
					{
						OFFSET 0.000000 -0.000003 14.625793
						CHANNELS 3 Xrotation Yrotation Zrotation
						JOINT LeftArmRoll
						{
							OFFSET 0.000000 -0.000001 7.383408
							CHANNELS 3 Xrotation Yrotation Zrotation
							JOINT LeftForeArm
							{
								OFFSET 0.000000 -0.000004 21.505203
								CHANNELS 3 Xrotation Yrotation Zrotation
								JOINT LeftForeArmRoll
								{
									OFFSET 0.000000 -0.000001 8.285324
									CHANNELS 3 Xrotation Yrotation Zrotation
									JOINT LeftHand
									{
										OFFSET 0.000000 -0.000003 16.626801
										CHANNELS 3 Xrotation Yrotation Zrotation
										End Site
										{
											OFFSET 0.000000 0.000000 0.100006
										}
									}
								}
							}
						}
					}
				}
			}
		}
	}
	JOINT RightUpLeg
	{
		OFFSET -7.815102 1.202170 -1.433090
		CHANNELS 3 Xrotation Yrotation Zrotation
		JOINT RightUpLegRoll
		{
			OFFSET 0.000000 -0.000003 19.495903
			CHANNELS 3 Xrotation Yrotation Zrotation
			JOINT RightLeg
			{
				OFFSET 0.000000 0.000004 -24.142700
				CHANNELS 3 Xrotation Yrotation Zrotation
				JOINT RightLegRoll
				{
					OFFSET 0.000000 -0.000004 24.221703
					CHANNELS 3 Xrotation Yrotation Zrotation
					JOINT RightFoot
					{
						OFFSET 0.000000 -0.000004 20.160500
						CHANNELS 3 Xrotation Yrotation Zrotation
						JOINT RightToeBase
						{
							OFFSET 0.000000 -0.000003 16.853195
							CHANNELS 3 Xrotation Yrotation Zrotation
							End Site
							{
								OFFSET 0.007145 0.940779 8.161865
							}
						}
					}
				}
			}
		}
	}
	JOINT LeftUpLeg
	{
		OFFSET 7.815102 1.202170 -1.433090
		CHANNELS 3 Xrotation Yrotation Zrotation
		JOINT LeftUpLegRoll
		{
			OFFSET 0.000000 -0.000003 19.496002
			CHANNELS 3 Xrotation Yrotation Zrotation
			JOINT LeftLeg
			{
				OFFSET 0.000000 -0.000004 24.142601
				CHANNELS 3 Xrotation Yrotation Zrotation
				JOINT LeftLegRoll
				{
					OFFSET 0.000000 -0.000005 24.445602
					CHANNELS 3 Xrotation Yrotation Zrotation
					JOINT LeftFoot
					{
						OFFSET 0.000000 -0.000003 19.936600
						CHANNELS 3 Xrotation Yrotation Zrotation
						JOINT LeftToeBase
						{
							OFFSET 0.000000 -0.000003 16.853195
							CHANNELS 3 Xrotation Yrotation Zrotation
							End Site
							{
								OFFSET -0.032013 0.940780 8.161865
							}
						}
					}
				}
			}
		}
	}
}
MOTION
Frames: 6
Frame Time: 0.041667
52.910305 -11.561818 100.608994 -2.382903 0.475430 2.855234 -2.490471 0.160402 -0.072605 -0.977945 0.310739 -0.139837 0.667141 0.309051 -0.143555 17.679154 4.755468 1.086265 -2.599847 -1.801315 1.354501 -11.291686 -38.373748 -12.146535 -146.777255 -140.763642 -111.726008 0.000000 0.000000 -0.000001 77.114147 0.213932 2.069353 -0.000002 0.000002 -3.000002 -5.000241 -7.998789 0.000172 -12.300673 64.300712 14.777278 -39.816144 113.119483 32.469548 -0.000002 -0.000001 0.000001 2.907699 12.132328 0.091682 -0.000004 -0.000004 3.000002 -5.000228 7.998702 -0.000176 1.253064 -178.697310 -0.298958 -179.999991 0.000006 -1.094000 174.462265 -1.831412 -0.446525 -0.000003 0.000000 0.038551 68.334007 6.905445 2.142354 25.456959 -7.355445 -0.000002 0.531153 176.664154 2.092902 -0.000005 -0.000004 -1.100400 -7.523331 2.015791 0.441399 -0.000002 -0.000005 -0.125754 70.118278 -6.872821 -2.100055 25.457601 7.354695 -0.000460 
52.913902 -11.563316 100.610992 -2.387111 0.480670 2.840827 -2.490330 0.161604 -0.071879 -0.977668 0.313555 -0.138375 0.667417 0.311885 -0.142127 17.664746 4.806164 1.093733 -2.592019 -1.807850 1.363441 -11.281789 -38.349914 -12.131612 -146.729430 -140.774789 -111.563531 -0.000001 0.000001 0.000000 76.381575 0.154790 2.060442 -0.000001 -0.000000 -3.000001 -5.000241 -7.998792 0.000172 -12.340589 64.310295 14.823370 -39.819528 113.109538 32.463298 -0.000001 -0.000000 -0.000000 2.890001 12.130312 0.093475 -0.000001 -0.000004 3.000002 -5.000229 7.998704 -0.000175 1.252414 -178.698308 -0.298707 -179.999991 0.000006 -1.094000 174.459642 -1.832409 -0.445709 -0.000003 0.000000 0.038527 68.332225 6.905495 2.142274 25.456957 -7.355445 -0.000002 0.535786 176.659155 2.088336 -0.000005 -0.000004 -1.100370 -7.524520 2.017253 0.441720 -0.000001 -0.000005 -0.125793 70.118900 -6.872768 -2.100106 25.457607 7.354695 -0.000460 
52.927505 -11.559319 100.620987 -2.388283 0.484652 2.827964 -2.490997 0.162897 -0.071121 -0.979002 0.316481 -0.136864 0.666083 0.314828 -0.140651 17.652518 4.859195 1.099857 -2.585987 -1.813472 1.371079 -11.271416 -38.322245 -12.115820 -146.682643 -140.780335 -111.403117 -0.000001 0.000001 0.000001 75.653825 0.096913 2.049837 -0.000001 0.000000 -3.000002 -5.000240 -7.998790 0.000172 -12.373825 64.330997 14.862353 -39.837037 113.090393 32.469005 -0.000001 -0.000000 0.000001 2.873271 12.128887 0.095074 -0.000001 -0.000004 3.000002 -5.000231 7.998703 -0.000175 1.248506 -178.697310 -0.297676 -179.999991 0.000006 -1.094000 174.456938 -1.834386 -0.445988 -0.000003 0.000000 0.038503 68.330544 6.905478 2.142376 25.456952 -7.355445 -0.000002 0.536488 176.656136 2.085467 -0.000005 -0.000004 -1.100340 -7.526186 2.018484 0.442056 -0.000002 -0.000005 -0.125832 70.119432 -6.872746 -2.100070 25.457601 7.354695 -0.000470 
52.904003 -11.555416 100.616989 -2.386026 0.487192 2.816870 -2.492570 0.164298 -0.070331 -0.982153 0.319526 -0.135300 0.662931 0.317892 -0.139124 17.642689 4.914858 1.104448 -2.582033 -1.818133 1.377224 -11.260565 -38.290341 -12.099132 -146.637126 -140.779420 -111.244479 -0.000002 -0.000000 0.000000 74.932352 0.040123 2.037697 -0.000001 -0.000002 -3.000001 -5.000241 -7.998795 0.000171 -12.399542 64.364527 14.893321 -39.871492 113.060504 32.489287 -0.000000 0.000000 0.000001 2.857638 12.128348 0.096439 -0.000001 -0.000005 3.000003 -5.000229 7.998702 -0.000175 1.240913 -178.694319 -0.295766 -179.999991 0.000006 -1.094000 174.454083 -1.836376 -0.446273 -0.000004 0.000000 0.038478 68.328844 6.905463 2.142378 25.456953 -7.355444 -0.000002 0.532691 176.655138 2.084520 -0.000005 -0.000004 -1.100300 -7.528462 2.019446 0.442404 -0.000002 -0.000005 -0.125872 70.119740 -6.872722 -2.100046 25.457599 7.354694 -0.000470 
52.904598 -11.552719 100.614990 -2.380086 0.488067 2.807456 -2.495152 0.165819 -0.069482 -0.987314 0.322729 -0.133642 0.657773 0.321115 -0.137505 17.635842 4.972619 1.107562 -2.580515 -1.820722 1.381826 -11.249088 -38.253116 -12.081281 -146.591760 -140.772016 -111.087993 -0.000001 0.000000 -0.000002 74.214513 -0.014717 2.023686 -0.000001 -0.000000 -3.000002 -5.000241 -7.998790 0.000172 -12.417040 64.411956 14.915514 -39.926065 113.018300 32.527003 -0.000000 -0.000000 0.000001 2.842819 12.128502 0.097596 -0.000001 -0.000005 2.999999 -5.000228 7.998701 -0.000176 1.229253 -178.688294 -0.292680 -179.999991 0.000006 -1.094000 174.450954 -1.839345 -0.445666 -0.000003 0.000000 0.038454 68.326958 6.905467 2.142498 25.456948 -7.355444 -0.000001 0.524233 176.657133 2.085841 -0.000005 -0.000004 -1.100270 -7.531218 2.020017 0.442773 -0.000002 -0.000005 -0.125911 70.119931 -6.872657 -2.100023 25.457604 7.354695 -0.000470 
52.901901 -11.544916 100.615982 -2.370735 0.487323 2.799396 -2.498682 0.167449 -0.068557 -0.994371 0.326101 -0.131859 0.650715 0.324508 -0.135762 17.632267 5.031755 1.109454 -2.581434 -1.820491 1.385096 -11.236897 -38.210493 -12.062138 -146.545902 -140.759107 -110.934922 0.000000 -0.000000 -0.000003 73.497337 -0.066697 2.007435 -0.000001 -0.000002 -3.000001 -5.000241 -7.998793 0.000172 -12.427042 64.472614 14.929713 -39.997735 112.965318 32.578998 -0.000002 -0.000001 0.000000 2.828430 12.129245 0.098588 0.000001 -0.000004 3.000001 -5.000228 7.998703 -0.000175 1.213711 -178.680303 -0.288348 -179.999991 0.000006 -1.093003 174.447471 -1.843317 -0.446165 -0.000003 0.000000 0.038430 68.324957 6.905460 2.142522 25.456957 -7.355446 -0.000002 0.511640 176.661135 2.089411 -0.000005 -0.000004 -1.100240 -7.534259 2.020132 0.443162 -0.000001 -0.000005 -0.125950 70.119808 -6.872622 -2.099924 25.457599 7.354696 -0.000470 
